<?xml version="1.0" encoding="utf-8" standalone="no"?>
<!DOCTYPE svg PUBLIC "-//W3C//DTD SVG 1.1//EN"
  "http://www.w3.org/Graphics/SVG/1.1/DTD/svg11.dtd">
<svg xmlns:xlink="http://www.w3.org/1999/xlink" width="806.4pt" height="547.2pt" viewBox="0 0 806.4 547.2" xmlns="http://www.w3.org/2000/svg" version="1.1">
 <metadata>
  <rdf:RDF xmlns:dc="http://purl.org/dc/elements/1.1/" xmlns:cc="http://creativecommons.org/ns#" xmlns:rdf="http://www.w3.org/1999/02/22-rdf-syntax-ns#">
   <cc:Work>
    <dc:type rdf:resource="http://purl.org/dc/dcmitype/StillImage"/>
    <dc:format>image/svg+xml</dc:format>
    <dc:creator>
     <cc:Agent>
      <dc:title>PyCBC executable and follow-up plot renderer</dc:title>
     </cc:Agent>
    </dc:creator>
   </cc:Work>
  </rdf:RDF>
 </metadata>
 <defs>
  <style type="text/css">*{stroke-linejoin: round; stroke-linecap: butt}</style>
 </defs>
 <g id="figure_1">
  <g id="patch_1">
   <path d="M 0 547.2
L 806.4 547.2
L 806.4 0
L 0 0
z
" style="fill: #ffffff"/>
  </g>
  <g id="axes_1">
   <g id="patch_2">
    <path d="M 72.576 344.736
L 758.016 344.736
L 758.016 142.272
L 72.576 142.272
z
" style="fill: #ffffff"/>
   </g>
   <g id="matplotlib.axis_1">
    <g id="xtick_1">
     <g id="line2d_1"/>
     <g id="text_1">
      <text style="font-size: 11px; font-family: 'DejaVu Sans'; text-anchor: middle; fill: #253444" x="207.586909" y="361.094281" transform="rotate(-0 207.586909 361.094281)">Standard CPU / MKL</text>
     </g>
    </g>
    <g id="xtick_2">
     <g id="line2d_2"/>
     <g id="text_2">
      <text style="font-size: 11px; font-family: 'DejaVu Sans'; text-anchor: middle; fill: #253444" x="415.296" y="361.094281" transform="rotate(-0 415.296 361.094281)">Torch CPU</text>
     </g>
    </g>
    <g id="xtick_3">
     <g id="line2d_3"/>
     <g id="text_3">
      <text style="font-size: 11px; font-family: 'DejaVu Sans'; text-anchor: middle; fill: #253444" x="623.005091" y="361.094281" transform="rotate(-0 623.005091 361.094281)">Torch CUDA</text>
     </g>
    </g>
   </g>
   <g id="matplotlib.axis_2">
    <g id="ytick_1">
     <g id="line2d_4">
      <path d="M 72.576 344.736
L 758.016 344.736
" clip-path="url(#pec16d4a037)" style="fill: none; stroke: #e3e8ed; stroke-width: 0.7; stroke-linecap: square"/>
     </g>
     <g id="line2d_5"/>
     <g id="text_4">
      <text style="font-size: 11px; font-family: 'DejaVu Sans'; text-anchor: end; fill: #52606d" x="64.576" y="348.914711" transform="rotate(-0 64.576 348.914711)">0</text>
     </g>
    </g>
    <g id="ytick_2">
     <g id="line2d_6">
      <path d="M 72.576 313.587692
L 758.016 313.587692
" clip-path="url(#pec16d4a037)" style="fill: none; stroke: #e3e8ed; stroke-width: 0.7; stroke-linecap: square"/>
     </g>
     <g id="line2d_7"/>
     <g id="text_5">
      <text style="font-size: 11px; font-family: 'DejaVu Sans'; text-anchor: end; fill: #52606d" x="64.576" y="317.766403" transform="rotate(-0 64.576 317.766403)">20</text>
     </g>
    </g>
    <g id="ytick_3">
     <g id="line2d_8">
      <path d="M 72.576 282.439385
L 758.016 282.439385
" clip-path="url(#pec16d4a037)" style="fill: none; stroke: #e3e8ed; stroke-width: 0.7; stroke-linecap: square"/>
     </g>
     <g id="line2d_9"/>
     <g id="text_6">
      <text style="font-size: 11px; font-family: 'DejaVu Sans'; text-anchor: end; fill: #52606d" x="64.576" y="286.618096" transform="rotate(-0 64.576 286.618096)">40</text>
     </g>
    </g>
    <g id="ytick_4">
     <g id="line2d_10">
      <path d="M 72.576 251.291077
L 758.016 251.291077
" clip-path="url(#pec16d4a037)" style="fill: none; stroke: #e3e8ed; stroke-width: 0.7; stroke-linecap: square"/>
     </g>
     <g id="line2d_11"/>
     <g id="text_7">
      <text style="font-size: 11px; font-family: 'DejaVu Sans'; text-anchor: end; fill: #52606d" x="64.576" y="255.469788" transform="rotate(-0 64.576 255.469788)">60</text>
     </g>
    </g>
    <g id="ytick_5">
     <g id="line2d_12">
      <path d="M 72.576 220.142769
L 758.016 220.142769
" clip-path="url(#pec16d4a037)" style="fill: none; stroke: #e3e8ed; stroke-width: 0.7; stroke-linecap: square"/>
     </g>
     <g id="line2d_13"/>
     <g id="text_8">
      <text style="font-size: 11px; font-family: 'DejaVu Sans'; text-anchor: end; fill: #52606d" x="64.576" y="224.32148" transform="rotate(-0 64.576 224.32148)">80</text>
     </g>
    </g>
    <g id="ytick_6">
     <g id="line2d_14">
      <path d="M 72.576 188.994462
L 758.016 188.994462
" clip-path="url(#pec16d4a037)" style="fill: none; stroke: #e3e8ed; stroke-width: 0.7; stroke-linecap: square"/>
     </g>
     <g id="line2d_15"/>
     <g id="text_9">
      <text style="font-size: 11px; font-family: 'DejaVu Sans'; text-anchor: end; fill: #52606d" x="64.576" y="193.173172" transform="rotate(-0 64.576 193.173172)">100</text>
     </g>
    </g>
    <g id="ytick_7">
     <g id="line2d_16">
      <path d="M 72.576 157.846154
L 758.016 157.846154
" clip-path="url(#pec16d4a037)" style="fill: none; stroke: #e3e8ed; stroke-width: 0.7; stroke-linecap: square"/>
     </g>
     <g id="line2d_17"/>
     <g id="text_10">
      <text style="font-size: 11px; font-family: 'DejaVu Sans'; text-anchor: end; fill: #52606d" x="64.576" y="162.024865" transform="rotate(-0 64.576 162.024865)">120</text>
     </g>
    </g>
    <g id="text_11">
     <text style="font-size: 11px; font-family: 'DejaVu Sans'; text-anchor: middle; fill: #253444" x="36.937172" y="243.504" transform="rotate(-90 36.937172 243.504)">Full-process wall time (seconds) · lower is faster</text>
    </g>
   </g>
   <g id="patch_3">
    <path d="M 141.12 344.736
L 274.053818 344.736
L 274.053818 240.492848
L 141.12 240.492848
z
" clip-path="url(#pec16d4a037)" style="fill: #526f91; opacity: 0.13"/>
   </g>
   <g id="patch_4">
    <path d="M 348.829091 344.736
L 481.762909 344.736
L 481.762909 182.141534
L 348.829091 182.141534
z
" clip-path="url(#pec16d4a037)" style="fill: #a56932; opacity: 0.13"/>
   </g>
   <g id="patch_5">
    <path d="M 556.538182 344.736
L 689.472 344.736
L 689.472 310.837708
L 556.538182 310.837708
z
" clip-path="url(#pec16d4a037)" style="fill: #007f73; opacity: 0.13"/>
   </g>
   <g id="LineCollection_1">
    <path d="M 141.12 240.492848
L 274.053818 240.492848
" clip-path="url(#pec16d4a037)" style="fill: none; stroke: #526f91; stroke-width: 2"/>
   </g>
   <g id="LineCollection_2">
    <path d="M 290.670545 240.966453
L 290.670545 238.837042
" clip-path="url(#pec16d4a037)" style="fill: none; stroke: #526f91; stroke-width: 1.5"/>
   </g>
   <g id="LineCollection_3">
    <path d="M 282.362182 240.966453
L 298.978909 240.966453
" clip-path="url(#pec16d4a037)" style="fill: none; stroke: #526f91; stroke-width: 1.5"/>
    <path d="M 282.362182 238.837042
L 298.978909 238.837042
" clip-path="url(#pec16d4a037)" style="fill: none; stroke: #526f91; stroke-width: 1.5"/>
   </g>
   <g id="LineCollection_4">
    <path d="M 348.829091 182.141534
L 481.762909 182.141534
" clip-path="url(#pec16d4a037)" style="fill: none; stroke: #a56932; stroke-width: 2"/>
   </g>
   <g id="LineCollection_5">
    <path d="M 498.379636 182.433979
L 498.379636 181.214537
" clip-path="url(#pec16d4a037)" style="fill: none; stroke: #a56932; stroke-width: 1.5"/>
   </g>
   <g id="LineCollection_6">
    <path d="M 490.071273 182.433979
L 506.688 182.433979
" clip-path="url(#pec16d4a037)" style="fill: none; stroke: #a56932; stroke-width: 1.5"/>
    <path d="M 490.071273 181.214537
L 506.688 181.214537
" clip-path="url(#pec16d4a037)" style="fill: none; stroke: #a56932; stroke-width: 1.5"/>
   </g>
   <g id="LineCollection_7">
    <path d="M 556.538182 310.837708
L 689.472 310.837708
" clip-path="url(#pec16d4a037)" style="fill: none; stroke: #007f73; stroke-width: 2"/>
   </g>
   <g id="LineCollection_8">
    <path d="M 706.088727 310.897262
L 706.088727 310.280121
" clip-path="url(#pec16d4a037)" style="fill: none; stroke: #007f73; stroke-width: 1.5"/>
   </g>
   <g id="LineCollection_9">
    <path d="M 697.780364 310.897262
L 714.397091 310.897262
" clip-path="url(#pec16d4a037)" style="fill: none; stroke: #007f73; stroke-width: 1.5"/>
    <path d="M 697.780364 310.280121
L 714.397091 310.280121
" clip-path="url(#pec16d4a037)" style="fill: none; stroke: #007f73; stroke-width: 1.5"/>
   </g>
   <g id="patch_6">
    <path d="M 72.576 344.736
L 758.016 344.736
" style="fill: none; stroke: #b6c1cc; stroke-width: 0.8; stroke-linejoin: miter; stroke-linecap: square"/>
   </g>
   <g id="text_12">
    <text style="font-weight: 700; font-size: 15px; font-family: 'DejaVu Sans'; text-anchor: middle; fill: #526f91" x="207.586909" y="229.492549" transform="rotate(-0 207.586909 229.492549)">66.933 s</text>
   </g>
   <g id="text_13">
    <text style="font-size: 10px; font-family: 'DejaVu Sans'; text-anchor: middle; fill: #253444" x="207.586909" y="393.32736" transform="rotate(-0 207.586909 393.32736)">Range 66.629–67.997 s</text>
   </g>
   <g id="text_14">
    <text style="font-size: 10px; font-family: 'DejaVu Sans'; text-anchor: middle; fill: #253444" x="207.586909" y="415.5984" transform="rotate(-0 207.586909 415.5984)">10,923.33 template-s / wall-s</text>
   </g>
   <g id="text_15">
    <text style="font-weight: 700; font-size: 15px; font-family: 'DejaVu Sans'; text-anchor: middle; fill: #a56932" x="415.296" y="171.870045" transform="rotate(-0 415.296 171.870045)">104.400 s</text>
   </g>
   <g id="text_16">
    <text style="font-size: 10px; font-family: 'DejaVu Sans'; text-anchor: middle; fill: #253444" x="415.296" y="393.32736" transform="rotate(-0 415.296 393.32736)">Range 104.212–104.995 s</text>
   </g>
   <g id="text_17">
    <text style="font-size: 10px; font-family: 'DejaVu Sans'; text-anchor: middle; fill: #253444" x="415.296" y="415.5984" transform="rotate(-0 415.296 415.5984)">7,003.21 template-s / wall-s</text>
   </g>
   <g id="text_18">
    <text style="font-weight: 700; font-size: 15px; font-family: 'DejaVu Sans'; text-anchor: middle; fill: #007f73" x="623.005091" y="300.935629" transform="rotate(-0 623.005091 300.935629)">21.766 s</text>
   </g>
   <g id="text_19">
    <text style="font-size: 10px; font-family: 'DejaVu Sans'; text-anchor: middle; fill: #253444" x="623.005091" y="393.32736" transform="rotate(-0 623.005091 393.32736)">Range 21.727–22.124 s</text>
   </g>
   <g id="text_20">
    <text style="font-size: 10px; font-family: 'DejaVu Sans'; text-anchor: middle; fill: #253444" x="623.005091" y="415.5984" transform="rotate(-0 623.005091 415.5984)">33,591.15 template-s / wall-s</text>
   </g>
   <g id="PathCollection_1">
    <defs>
     <path id="m65ef385345" d="M 0 3.872983
C 1.027127 3.872983 2.012324 3.464901 2.738613 2.738613
C 3.464901 2.012324 3.872983 1.027127 3.872983 0
C 3.872983 -1.027127 3.464901 -2.012324 2.738613 -2.738613
C 2.012324 -3.464901 1.027127 -3.872983 0 -3.872983
C -1.027127 -3.872983 -2.012324 -3.464901 -2.738613 -2.738613
C -3.464901 -2.012324 -3.872983 -1.027127 -3.872983 0
C -3.872983 1.027127 -3.464901 2.012324 -2.738613 2.738613
C -2.012324 3.464901 -1.027127 3.872983 0 3.872983
z
" style="stroke: #ffffff"/>
    </defs>
    <g clip-path="url(#pec16d4a037)">
     <use xlink:href="#m65ef385345" x="163.968" y="238.837042" style="fill: #526f91; stroke: #ffffff"/>
     <use xlink:href="#m65ef385345" x="207.586909" y="240.492848" style="fill: #526f91; stroke: #ffffff"/>
     <use xlink:href="#m65ef385345" x="251.205818" y="240.966453" style="fill: #526f91; stroke: #ffffff"/>
    </g>
   </g>
   <g id="PathCollection_2">
    <defs>
     <path id="m16ce6328a9" d="M 0 3.872983
C 1.027127 3.872983 2.012324 3.464901 2.738613 2.738613
C 3.464901 2.012324 3.872983 1.027127 3.872983 0
C 3.872983 -1.027127 3.464901 -2.012324 2.738613 -2.738613
C 2.012324 -3.464901 1.027127 -3.872983 0 -3.872983
C -1.027127 -3.872983 -2.012324 -3.464901 -2.738613 -2.738613
C -3.464901 -2.012324 -3.872983 -1.027127 -3.872983 0
C -3.872983 1.027127 -3.464901 2.012324 -2.738613 2.738613
C -2.012324 3.464901 -1.027127 3.872983 0 3.872983
z
" style="stroke: #ffffff"/>
    </defs>
    <g clip-path="url(#pec16d4a037)">
     <use xlink:href="#m16ce6328a9" x="371.677091" y="181.214537" style="fill: #a56932; stroke: #ffffff"/>
     <use xlink:href="#m16ce6328a9" x="415.296" y="182.433979" style="fill: #a56932; stroke: #ffffff"/>
     <use xlink:href="#m16ce6328a9" x="458.914909" y="182.141534" style="fill: #a56932; stroke: #ffffff"/>
    </g>
   </g>
   <g id="PathCollection_3">
    <defs>
     <path id="m62cce1da6b" d="M 0 3.872983
C 1.027127 3.872983 2.012324 3.464901 2.738613 2.738613
C 3.464901 2.012324 3.872983 1.027127 3.872983 0
C 3.872983 -1.027127 3.464901 -2.012324 2.738613 -2.738613
C 2.012324 -3.464901 1.027127 -3.872983 0 -3.872983
C -1.027127 -3.872983 -2.012324 -3.464901 -2.738613 -2.738613
C -3.464901 -2.012324 -3.872983 -1.027127 -3.872983 0
C -3.872983 1.027127 -3.464901 2.012324 -2.738613 2.738613
C -2.012324 3.464901 -1.027127 3.872983 0 3.872983
z
" style="stroke: #ffffff"/>
    </defs>
    <g clip-path="url(#pec16d4a037)">
     <use xlink:href="#m62cce1da6b" x="579.386182" y="310.837708" style="fill: #007f73; stroke: #ffffff"/>
     <use xlink:href="#m62cce1da6b" x="623.005091" y="310.897262" style="fill: #007f73; stroke: #ffffff"/>
     <use xlink:href="#m62cce1da6b" x="666.624" y="310.280121" style="fill: #007f73; stroke: #ffffff"/>
    </g>
   </g>
  </g>
  <g id="text_21">
   <text style="font-weight: 700; font-size: 21px; font-family: 'DejaVu Sans'; text-anchor: start; fill: #253444" x="72.576" y="32.832" transform="rotate(-0 72.576 32.832)">pycbc_inspiral · latest matched executable</text>
  </g>
  <g id="text_22">
   <text style="font-size: 12px; font-family: 'DejaVu Sans'; text-anchor: start; fill: #253444" x="72.576" y="61.8336" transform="rotate(-0 72.576 61.8336)">Source ecd5d082 · bounded frame loader on all three backends</text>
  </g>
  <g id="text_23">
   <text style="font-size: 11px; font-family: 'DejaVu Sans'; text-anchor: start; fill: #253444" x="72.576" y="86.4576" transform="rotate(-0 72.576 86.4576)">384 compressed templates × 1,904 H1 seconds · 5 segments per template</text>
  </g>
  <g id="text_24">
   <text style="font-size: 11px; font-family: 'DejaVu Sans'; text-anchor: start; fill: #52606d" x="72.576" y="109.44" transform="rotate(-0 72.576 109.44)">1 host core / 1 thread · CUDA: 1 RTX 4090 · shared len (unreserved)</text>
  </g>
  <g id="text_25">
   <text style="font-size: 10px; font-family: 'DejaVu Sans'; text-anchor: start; fill: #253444" x="72.576" y="449.7984" transform="rotate(-0 72.576 449.7984)">Dots: three fresh workers · line: median · whisker: observed min–max</text>
  </g>
  <g id="text_26">
   <text style="font-size: 10px; font-family: 'DejaVu Sans'; text-anchor: start; fill: #253444" x="72.576" y="473.8752" transform="rotate(-0 72.576 473.8752)">Full clock includes runtime verification, startup, setup, filtering and HDF output.</text>
  </g>
  <g id="text_27">
   <text style="font-size: 10px; font-family: 'DejaVu Sans'; text-anchor: start; fill: #52606d" x="72.576" y="497.4048" transform="rotate(-0 72.576 497.4048)">Finite-workload rate per assigned host core; CUDA also consumes a GPU. No sustained-capacity claim.</text>
  </g>
  <g id="text_28">
   <text style="font-size: 10px; font-family: 'DejaVu Sans'; text-anchor: start; fill: #52606d" x="72.576" y="520.3872" transform="rotate(-0 72.576 520.3872)">Timing campaign: 18 workers across baseline and candidate; this figure shows the nine candidate workers.</text>
  </g>
 </g>
 <defs>
  <clipPath id="pec16d4a037">
   <rect x="72.576" y="142.272" width="685.44" height="202.464"/>
  </clipPath>
 </defs>
</svg>
